<svg id="visual" viewBox="0 0 900 600" width="900" height="600" xmlns="http://www.w3.org/2000/svg" xmlns:xlink="http://www.w3.org/1999/xlink" version="1.1"><rect x="0" y="0" width="900" height="600" fill="#e8e8e8"></rect><path d="M0 443L11.5 446.5C23 450 46 457 69 454C92 451 115 438 138.2 437.7C161.3 437.3 184.7 449.7 207.8 454.5C231 459.3 254 456.7 277 446C300 435.3 323 416.7 346 415.5C369 414.3 392 430.7 415.2 438.3C438.3 446 461.7 445 484.8 441.5C508 438 531 432 554 433.8C577 435.7 600 445.3 623 443.7C646 442 669 429 692.2 431.2C715.3 433.3 738.7 450.7 761.8 455.7C785 460.7 808 453.3 831 446.5C854 439.7 877 433.3 888.5 430.2L900 427L900 601L888.5 601C877 601 854 601 831 601C808 601 785 601 761.8 601C738.7 601 715.3 601 692.2 601C669 601 646 601 623 601C600 601 577 601 554 601C531 601 508 601 484.8 601C461.7 601 438.3 601 415.2 601C392 601 369 601 346 601C323 601 300 601 277 601C254 601 231 601 207.8 601C184.7 601 161.3 601 138.2 601C115 601 92 601 69 601C46 601 23 601 11.5 601L0 601Z" fill="#74d7fc"></path><path d="M0 469L11.5 464.7C23 460.3 46 451.7 69 447.5C92 443.3 115 443.7 138.2 447C161.3 450.3 184.7 456.7 207.8 465.2C231 473.7 254 484.3 277 483.8C300 483.3 323 471.7 346 465C369 458.3 392 456.7 415.2 458.7C438.3 460.7 461.7 466.3 484.8 467.2C508 468 531 464 554 467C577 470 600 480 623 482.5C646 485 669 480 692.2 476.2C715.3 472.3 738.7 469.7 761.8 469.5C785 469.3 808 471.7 831 470.2C854 468.7 877 463.3 888.5 460.7L900 458L900 601L888.5 601C877 601 854 601 831 601C808 601 785 601 761.8 601C738.7 601 715.3 601 692.2 601C669 601 646 601 623 601C600 601 577 601 554 601C531 601 508 601 484.8 601C461.7 601 438.3 601 415.2 601C392 601 369 601 346 601C323 601 300 601 277 601C254 601 231 601 207.8 601C184.7 601 161.3 601 138.2 601C115 601 92 601 69 601C46 601 23 601 11.5 601L0 601Z" fill="#3da0d6"></path><path d="M0 509L11.5 504.8C23 500.7 46 492.3 69 495.3C92 498.3 115 512.7 138.2 520C161.3 527.3 184.7 527.7 207.8 522.7C231 517.7 254 507.3 277 505.3C300 503.3 323 509.7 346 509.7C369 509.7 392 503.3 415.2 505.8C438.3 508.3 461.7 519.7 484.8 521.2C508 522.7 531 514.3 554 514.7C577 515 600 524 623 523C646 522 669 511 692.2 507.2C715.3 503.3 738.7 506.7 761.8 507.7C785 508.7 808 507.3 831 503.3C854 499.3 877 492.7 888.5 489.3L900 486L900 601L888.5 601C877 601 854 601 831 601C808 601 785 601 761.8 601C738.7 601 715.3 601 692.2 601C669 601 646 601 623 601C600 601 577 601 554 601C531 601 508 601 484.8 601C461.7 601 438.3 601 415.2 601C392 601 369 601 346 601C323 601 300 601 277 601C254 601 231 601 207.8 601C184.7 601 161.3 601 138.2 601C115 601 92 601 69 601C46 601 23 601 11.5 601L0 601Z" fill="#116aad"></path><path d="M0 554L11.5 550.7C23 547.3 46 540.7 69 541.7C92 542.7 115 551.3 138.2 552.3C161.3 553.3 184.7 546.7 207.8 547.3C231 548 254 556 277 555.7C300 555.3 323 546.7 346 542.2C369 537.7 392 537.3 415.2 535.7C438.3 534 461.7 531 484.8 529.3C508 527.7 531 527.3 554 532.5C577 537.7 600 548.3 623 553.5C646 558.7 669 558.3 692.2 554.5C715.3 550.7 738.7 543.3 761.8 543.7C785 544 808 552 831 556.8C854 561.7 877 563.3 888.5 564.2L900 565L900 601L888.5 601C877 601 854 601 831 601C808 601 785 601 761.8 601C738.7 601 715.3 601 692.2 601C669 601 646 601 623 601C600 601 577 601 554 601C531 601 508 601 484.8 601C461.7 601 438.3 601 415.2 601C392 601 369 601 346 601C323 601 300 601 277 601C254 601 231 601 207.8 601C184.7 601 161.3 601 138.2 601C115 601 92 601 69 601C46 601 23 601 11.5 601L0 601Z" fill="#08377e"></path></svg>